<?xml version="1.0" encoding="utf-8"?>
<!-- Generator: Adobe Illustrator 12.0.1, SVG Export Plug-In . SVG Version: 6.00 Build 51448)  -->
<!DOCTYPE svg PUBLIC "-//W3C//DTD SVG 1.1//EN" "http://www.w3.org/Graphics/SVG/1.1/DTD/svg11.dtd" [
	<!ENTITY ns_svg "http://www.w3.org/2000/svg">
	<!ENTITY ns_xlink "http://www.w3.org/1999/xlink">
]>
<svg  version="1.1" id="Layer_1" xmlns="&ns_svg;" xmlns:xlink="&ns_xlink;" width="1048.33" height="96.243"
	 viewBox="0 0 1048.33 96.243" overflow="visible" enable-background="new 0 0 1048.33 96.243" xml:space="preserve">
<polygon fill="#0078C1" points="317.467,63.237 317.467,34.914 335.999,34.914 335.999,38.107 321.081,38.107 321.081,47.311 
	334.906,47.311 334.906,50.547 321.081,50.547 321.081,60.044 336.293,60.044 336.293,63.237 "/>
<path fill="#0078C1" d="M363.855,63.237h-3.614V51.303c0-3.445-1.177-5.924-4.58-5.924c-1.472,0-5.884,0.797-5.884,5.798v12.061
	h-3.614V42.898h3.362v2.858c1.429-2.774,4.329-3.362,6.22-3.362c4.748,0,8.11,2.185,8.11,8.908V63.237z"/>
<path fill="#0078C1" d="M385.955,63.237v-2.312c-1.891,2.479-4.286,2.773-5.421,2.773c-3.446,0-7.438-1.555-7.438-6.135
	c0-5.169,4.917-6.934,12.985-7.354v-1.261c0-0.209-0.084-3.655-4.118-3.655c-3.11,0-4.497,0.756-5.967,1.471l-1.051-2.396
	c0-0.042,2.816-1.974,7.186-1.974c0,0,7.564-0.463,7.564,6.429v14.414H385.955z M386.081,56.43v-3.74
	c-6.009,0.336-9.707,2.06-9.623,4.749c0.084,2.101,1.807,3.319,4.16,3.319C381.584,60.758,386.081,60.38,386.081,56.43"/>
<path fill="#0078C1" d="M403.81,45.756c0.925-2.438,3.782-3.362,5.799-3.362c5.463,0,9.497,3.404,9.497,10.673
	c0,7.271-3.992,10.632-9.329,10.632c-0.42,0-4.412,0-6.009-2.773v2.312h-3.572V34.914h3.614V45.756z M403.81,49.664v6.556
	c0,4.034,3.866,4.496,5.883,4.496c4.202,0,5.589-3.824,5.589-7.648c0-4.034-1.261-7.689-6.345-7.689
	C407.76,45.378,404.104,46.555,403.81,49.664"/>
<rect x="428.767" y="34.914" fill="#0078C1" width="3.614" height="28.323"/>
<path fill="#0078C1" d="M443.095,34.914h3.614v3.656h-3.614V34.914z M443.095,42.898h3.614v20.339h-3.614V42.898z"/>
<path fill="#0078C1" d="M474.903,63.237h-3.614V51.303c0-3.445-1.177-5.924-4.58-5.924c-1.472,0-5.884,0.797-5.884,5.798v12.061
	h-3.614V42.898h3.362v2.858c1.429-2.774,4.329-3.362,6.22-3.362c4.748,0,8.11,2.185,8.11,8.908V63.237z"/>
<path fill="#0078C1" d="M499.649,60.926c-0.882,2.06-3.782,2.773-5.799,2.773c-5.463,0-9.497-3.361-9.497-10.632
	c0-7.27,3.992-10.673,9.329-10.673c0.42,0,4.412,0.042,6.009,3.361v-2.857h3.572v22.146c0,5.085-4.665,6.598-9.077,6.598
	c-3.194,0-6.261-0.798-7.354-1.639l0.882-2.563c2.227,1.345,5.211,1.429,6.178,1.429c5.589,0,5.799-2.605,5.799-4.454
	L499.649,60.926z M499.649,56.934v-7.018c0-4.034-3.866-4.539-5.883-4.539c-4.202,0-5.589,3.867-5.589,7.69
	c0,4.034,1.261,7.648,6.345,7.648C495.699,60.716,499.649,60.002,499.649,56.934"/>
<path fill="#0078C1" d="M531.538,51.387V34.914h3.656v16.221c0,6.514,2.353,9.623,7.984,9.623c5.63,0,7.984-3.109,7.984-9.623
	V34.914h3.655v16.473c0,9.203-4.496,12.396-11.64,12.396C536.034,63.783,531.538,60.59,531.538,51.387"/>
<path fill="#0078C1" d="M583.22,63.237h-3.614V51.303c0-3.445-1.177-5.924-4.58-5.924c-1.471,0-5.884,0.797-5.884,5.798v12.061
	h-3.613V42.898h3.361v2.858c1.429-2.774,4.328-3.362,6.22-3.362c4.748,0,8.11,2.185,8.11,8.908V63.237z"/>
<rect x="593.721" y="34.914" fill="#0078C1" width="3.614" height="28.323"/>
<path fill="#0078C1" d="M608.048,34.914h3.614v3.656h-3.614V34.914z M608.048,42.898h3.614v20.339h-3.614V42.898z"/>
<path fill="#0078C1" d="M635.276,50.631c0-2.521-0.84-5.253-4.58-5.253c-1.975,0-4.706,1.261-4.706,6.261v11.598h-3.614V42.899
	h3.361v2.857c1.429-2.773,3.404-3.361,5.59-3.361c2.437,0,4.916,0.923,6.009,3.445c1.261-2.186,3.53-3.445,6.22-3.445
	c4.286,0,8.11,1.596,8.11,8.194v12.647h-3.614V51.261c0-3.824-1.177-5.883-4.58-5.883c-0.8,0-4.707,0.21-4.707,5.211v12.647h-3.53
	L635.276,50.631z"/>
<path fill="#0078C1" d="M662.375,34.914h3.614v3.656h-3.614V34.914z M662.375,42.898h3.614v20.339h-3.614V42.898z"/>
<path fill="#0078C1" d="M675.231,45.798v-2.899l2.857,0.084V37.73h3.572v5.253l4.706-0.084v2.899l-4.706-0.084v11.472
	c0,1.388,0.252,4.749,4.958,3.194l0.294,2.646c-1.302,0.673-2.689,0.673-3.025,0.673c-0.924,0-5.799,0.505-5.799-6.387V45.714
	L675.231,45.798z"/>
<path fill="#0078C1" d="M694.894,53.067c0-6.135,3.614-10.673,9.623-10.673c6.346,0,10.212,4.496,9.539,12.018h-15.548
	c0,3.698,2.563,6.346,6.808,6.346c1.219,0,2.731,0.126,6.262-1.303l1.134,2.647c-1.303,0.757-4.034,1.681-7.731,1.681
	C699.348,63.783,694.894,59.749,694.894,53.067 M698.634,51.429h11.935c-0.168-3.908-2.605-6.009-6.052-6.009
	C701.072,45.42,698.676,48.488,698.634,51.429"/>
<path fill="#0078C1" d="M738.046,34.915h3.614v28.323h-3.571v-2.312c-1.598,2.773-5.59,2.773-6.01,2.773
	c-5.337,0-9.329-3.36-9.329-10.632c0-7.27,4.034-10.673,9.497-10.673c2.018,0,4.875,0.924,5.799,3.361V34.915z M726.575,53.067
	c0,3.824,1.387,7.648,5.589,7.648c2.018,0,5.883-0.461,5.883-4.496v-6.556c-0.294-3.11-3.949-4.286-5.126-4.286
	C727.835,45.378,726.575,49.033,726.575,53.067"/>
<path fill="#0078C1" d="M773.549,52.27v10.968h-3.614V34.914h12.48c6.178,0,8.11,5.169,8.11,8.951c0,0.798-0.336,8.404-7.815,8.404
	H773.549z M782.122,49.033c3.95,0,4.623-3.487,4.623-5.126c0-2.815-1.388-5.8-5.337-5.8h-7.858v10.926H782.122z"/>
<path fill="#0078C1" d="M807.876,42.395c6.052,0,9.833,3.991,9.833,10.672s-3.781,10.716-9.833,10.716
	c-6.051,0-9.791-4.034-9.791-10.716S801.826,42.395,807.876,42.395 M807.876,45.294c-4.118,0-6.22,3.823-6.22,7.773
	s2.102,7.816,6.22,7.816c4.034,0,6.262-3.908,6.262-7.816C814.138,49.16,811.911,45.294,807.876,45.294"/>
<path fill="#0078C1" d="M836.196,55.799l-6.136-2.395c-4.076-1.766-4.076-4.456-3.782-6.304c0.589-3.74,5.295-5.883,11.095-4.076
	c1.134,0.378,1.975,0.798,3.109,1.512l-1.471,2.48c-2.899-2.06-9.497-2.27-9.455,0.883c0,2.394,1.681,2.1,7.9,4.706
	c4.58,1.891,4.076,5.799,3.193,7.774c-1.387,3.025-5.925,4.286-11.094,2.69c-1.135-0.379-2.731-1.136-3.866-2.145l1.513-2.521
	c2.228,1.892,9.245,3.656,10.59,0.379C838.422,56.598,836.616,56.01,836.196,55.799"/>
<path fill="#0078C1" d="M859.935,55.799l-6.136-2.395c-4.076-1.766-4.076-4.456-3.782-6.304c0.589-3.74,5.295-5.883,11.095-4.076
	c1.134,0.378,1.975,0.798,3.109,1.512l-1.471,2.48c-2.899-2.06-9.497-2.27-9.455,0.883c0,2.394,1.681,2.1,7.9,4.706
	c4.58,1.891,4.076,5.799,3.193,7.774c-1.387,3.025-5.925,4.286-11.094,2.69c-1.134-0.379-2.731-1.136-3.866-2.145l1.513-2.521
	c2.228,1.892,9.245,3.656,10.59,0.379C862.162,56.598,860.355,56.01,859.935,55.799"/>
<path fill="#0078C1" d="M874.428,34.914h3.614v3.656h-3.614V34.914z M874.428,42.898h3.614v20.339h-3.614V42.898z"/>
<path fill="#0078C1" d="M892.37,45.756c0.924-2.438,3.781-3.362,5.799-3.362c5.463,0,9.497,3.404,9.497,10.673
	c0,7.271-3.992,10.632-9.329,10.632c-0.42,0-4.412,0-6.009-2.773v2.312h-3.572V34.914h3.614V45.756z M892.37,49.664v6.556
	c0,4.034,3.865,4.496,5.883,4.496c4.202,0,5.589-3.824,5.589-7.648c0-4.034-1.261-7.689-6.346-7.689
	C896.32,45.378,892.664,46.555,892.37,49.664"/>
<path fill="#0078C1" d="M917.327,34.914h3.614v3.656h-3.614V34.914z M917.327,42.898h3.614v20.339h-3.614V42.898z"/>
<rect x="931.654" y="34.914" fill="#0078C1" width="3.614" height="28.323"/>
<path fill="#0078C1" d="M945.981,34.914h3.613v3.656h-3.613V34.914z M945.981,42.898h3.613v20.339h-3.613V42.898z"/>
<path fill="#0078C1" d="M958.837,45.798v-2.899l2.857,0.084V37.73h3.572v5.253l4.706-0.084v2.899l-4.706-0.084v11.472
	c0,1.388,0.252,4.749,4.958,3.194l0.294,2.646c-1.303,0.673-2.689,0.673-3.025,0.673c-0.924,0-5.799,0.505-5.799-6.387V45.714
	L958.837,45.798z"/>
<path fill="#0078C1" d="M979.552,34.914h3.614v3.656h-3.614V34.914z M979.552,42.898h3.614v20.339h-3.614V42.898z"/>
<path fill="#0078C1" d="M992.829,53.067c0-6.135,3.614-10.673,9.623-10.673c6.347,0,10.212,4.496,9.539,12.018h-15.548
	c0,3.698,2.564,6.346,6.808,6.346c1.219,0,2.731,0.126,6.261-1.303l1.135,2.647c-1.303,0.757-4.034,1.681-7.731,1.681
	C997.283,63.783,992.829,59.749,992.829,53.067 M996.569,51.429h11.935c-0.168-3.908-2.605-6.009-6.052-6.009
	C999.007,45.42,996.611,48.488,996.569,51.429"/>
<path fill="#0078C1" d="M1030.981,55.799l-6.136-2.395c-4.076-1.766-4.076-4.456-3.782-6.304c0.589-3.74,5.295-5.883,11.095-4.076
	c1.135,0.378,1.975,0.798,3.109,1.512l-1.471,2.48c-2.899-2.06-9.497-2.27-9.455,0.883c0,2.394,1.681,2.1,7.9,4.706
	c4.58,1.891,4.076,5.799,3.193,7.774c-1.387,3.025-5.925,4.286-11.094,2.69c-1.135-0.379-2.731-1.136-3.866-2.145l1.513-2.521
	c2.228,1.892,9.245,3.656,10.59,0.379C1033.208,56.598,1031.401,56.01,1030.981,55.799"/>
<path fill="#0078C1" d="M208.988,56.425h7.588v-3.733c0-6.057-1.948-11.584-5.484-15.564c-3.923-4.417-9.542-6.752-16.25-6.752
	c-6.734,0-12.495,2.319-16.659,6.7c-3.861,4.065-5.988,9.611-5.988,15.617c0,13.351,8.034,23.219,22.623,23.168
	c12.153-0.042,18.686-6.789,20.477-12.491h-9.163h-0.728c-2.338,3.214-6.614,4.944-10.48,4.821
	c-7.181-0.226-12.797-5.273-12.541-11.765H208.988z M194.842,38.639c8.189,0,10.951,5.345,11.844,9.683h-24.261
	C183.917,42.212,188.252,38.639,194.842,38.639"/>
<path fill="#0078C1" d="M241.223,14.863c-2.198,0-3.981,1.778-3.981,3.979c0,2.193,1.783,3.974,3.981,3.975
	c2.196-0.001,3.978-1.782,3.978-3.975C245.201,16.641,243.419,14.863,241.223,14.863 M241.223,21.954
	c-1.719-0.003-3.114-1.394-3.115-3.112c0.001-1.72,1.396-3.11,3.115-3.115c1.718,0.005,3.111,1.395,3.114,3.115
	C244.333,20.56,242.941,21.951,241.223,21.954"/>
<path fill="#0078C1" d="M242.856,18.112c0-0.611-0.471-1.129-1.169-1.129h-1.882v3.617h0.694v-1.369h0.887l0.991,1.369h0.856
	l-1.085-1.466C242.591,18.964,242.856,18.563,242.856,18.112 M241.563,18.688H240.5v-1.141h1.064c0.317,0,0.582,0.221,0.582,0.565
	C242.146,18.456,241.894,18.688,241.563,18.688"/>
<path fill="#0078C1" d="M240.803,66.037c-1.342,0-2.625-0.255-3.811-0.751c-1.191-0.495-2.241-1.195-3.121-2.077
	c-0.877-0.868-1.582-1.918-2.079-3.109c-0.501-1.187-0.753-2.468-0.753-3.795V14.856h-8.894v41.441c0,2.533,0.494,4.957,1.456,7.215
	c0.966,2.248,2.324,4.25,4.029,5.958c1.71,1.699,3.715,3.049,5.961,4.01c2.255,0.963,4.684,1.45,7.212,1.45h4.657v-8.893H240.803z"
	/>
<path fill="#0078C1" d="M165.091,42.225c-0.963-2.278-2.313-4.297-4.011-6.005c-1.693-1.701-3.678-3.064-5.903-4.049
	c-2.232-0.984-4.669-1.482-7.243-1.482c-3.028,0-5.871,0.696-8.447,2.073c-2.137,1.135-4.002,2.644-5.557,4.493
	c-1.548-1.845-3.397-3.352-5.511-4.49c-2.553-1.378-5.408-2.076-8.484-2.076c-2.526,0-4.949,0.498-7.199,1.481
	c-2.252,0.986-4.24,2.351-5.906,4.057c-1.669,1.707-3.002,3.727-3.964,5.999c-0.963,2.279-1.452,4.771-1.452,7.405V74.86h9.16
	V49.645c0-1.321,0.246-2.575,0.729-3.727c0.486-1.161,1.164-2.19,2.016-3.061c0.849-0.868,1.855-1.564,2.988-2.065
	c1.133-0.493,2.358-0.744,3.641-0.744c1.288,0,2.531,0.251,3.687,0.745c1.161,0.504,2.178,1.198,3.022,2.064
	c0.852,0.871,1.53,1.901,2.017,3.061c0.483,1.157,0.728,2.411,0.728,3.727V74.86h9.156V49.645c0-1.315,0.245-2.566,0.728-3.726
	c0.483-1.154,1.162-2.184,2.016-3.062c0.851-0.869,1.859-1.566,2.989-2.065c1.134-0.493,2.36-0.744,3.643-0.744
	c1.286,0,2.527,0.251,3.683,0.746c1.157,0.499,2.175,1.194,3.026,2.063c0.852,0.874,1.53,1.903,2.016,3.062
	c0.483,1.147,0.727,2.401,0.727,3.726V74.86h9.16V49.631C166.546,46.998,166.056,44.506,165.091,42.225"/>
<polygon fill="#0078C1" points="50.689,14.856 0,74.805 10.601,74.805 26.135,56.516 44.021,56.516 44.021,48.018 33.355,48.018 
	52.098,25.969 52.098,74.805 60.989,74.805 60.989,14.856 "/>
<path fill="#0078C1" d="M90.841,66.037c-1.336,0-2.616-0.253-3.802-0.751c-1.19-0.495-2.241-1.195-3.121-2.077
	c-0.88-0.868-1.58-1.918-2.083-3.109c-0.499-1.187-0.754-2.468-0.754-3.795V40.253h13.92v-8.99h-13.92V14.856h-8.892v16.407h-4.666
	v8.99h4.666v16.044c0,2.533,0.491,4.957,1.457,7.215c0.963,2.25,2.32,4.25,4.03,5.958c1.708,1.699,3.712,3.049,5.96,4.01
	c2.256,0.963,4.681,1.45,7.205,1.45h4.391v-8.893H90.841z"/>
<rect x="283.716" fill="#0078C1" width="1" height="96.243"/>
<path fill="#0078C1" d="M1043.517,36.898L1043.517,36.898h-0.006c-1.114,0-2.139,0.471-2.884,1.216
	c-0.747,0.754-1.216,1.774-1.216,2.889c0,1.118,0.469,2.142,1.216,2.893c0.745,0.748,1.77,1.21,2.89,1.21
	c1.115,0,2.141-0.462,2.883-1.21c0.746-0.751,1.215-1.775,1.215-2.893c0-1.115-0.469-2.135-1.211-2.889
	C1045.658,37.37,1044.632,36.898,1043.517,36.898 M1043.517,36.192L1043.517,36.192c1.311,0,2.51,0.542,3.382,1.419
	c0.877,0.869,1.425,2.083,1.425,3.392h0.006h-0.006c0,1.317-0.548,2.519-1.418,3.388c-0.879,0.878-2.072,1.43-3.389,1.43
	s-2.521-0.552-3.395-1.43c-0.869-0.869-1.418-2.071-1.418-3.388c0-1.309,0.549-2.523,1.418-3.392
	c0.873-0.877,2.078-1.419,3.389-1.419H1043.517z"/>
<path fill="#0078C1" d="M1042.459,40.758h1.434c0.447,0,0.928-0.111,0.928-0.79c0-0.712-0.516-0.757-0.819-0.757h-1.542V40.758z
	 M1042.459,43.253h-0.624v-4.585h2.119c0.76,0,1.509,0.264,1.509,1.238c0,0.674-0.345,0.923-0.643,1.096
	c0.255,0.105,0.527,0.22,0.552,0.862l0.041,0.831c0.004,0.249,0.039,0.346,0.227,0.451v0.107h-0.754
	c-0.088-0.285-0.107-0.975-0.107-1.146c0-0.377-0.075-0.821-0.824-0.821h-1.495V43.253z"/>
</svg>
