<?xml version="1.0" encoding="utf-8"?>
<!-- Generator: Adobe Illustrator 12.0.1, SVG Export Plug-In . SVG Version: 6.00 Build 51448)  -->
<!DOCTYPE svg PUBLIC "-//W3C//DTD SVG 1.1//EN" "http://www.w3.org/Graphics/SVG/1.1/DTD/svg11.dtd" [
	<!ENTITY ns_svg "http://www.w3.org/2000/svg">
	<!ENTITY ns_xlink "http://www.w3.org/1999/xlink">
]>
<svg  version="1.1" id="Layer_1" xmlns="&ns_svg;" xmlns:xlink="&ns_xlink;" width="817.949" height="203.28"
	 viewBox="0 0 817.949 203.28" overflow="visible" enable-background="new 0 0 817.949 203.28" xml:space="preserve">
<path fill="#0078C1" d="M696.412,138.516h25.287v-12.439c0-20.183-6.492-38.605-18.275-51.869
	c-13.074-14.716-31.797-22.496-54.15-22.496c-22.44,0-41.636,7.724-55.513,22.326c-12.864,13.544-19.954,32.028-19.954,52.039
	c0,44.485,26.771,77.371,75.384,77.202c40.501-0.14,62.269-22.624,68.238-41.624h-30.534h-2.426
	c-7.79,10.711-22.039,16.475-34.924,16.067c-23.925-0.753-42.642-17.578-41.79-39.206H696.412z M649.273,79.248
	c27.289,0,36.491,17.813,39.468,32.267h-80.847C612.864,91.157,627.313,79.248,649.273,79.248"/>
<path fill="#0078C1" d="M803.827,0.022c-7.322,0-13.266,5.925-13.266,13.255c0,7.312,5.943,13.247,13.266,13.251
	c7.315-0.004,13.254-5.939,13.254-13.251C817.081,5.947,811.142,0.022,803.827,0.022 M803.827,23.649
	c-5.729-0.011-10.378-4.645-10.381-10.372c0.003-5.73,4.651-10.359,10.381-10.376c5.723,0.017,10.365,4.646,10.376,10.376
	C814.192,19.004,809.549,23.638,803.827,23.649"/>
<path fill="#0078C1" d="M809.271,10.849c0-2.035-1.57-3.762-3.896-3.762h-6.272v12.055h2.311v-4.564h2.958l3.305,4.564h2.849
	l-3.612-4.887C808.387,13.689,809.271,12.353,809.271,10.849 M804.963,12.77h-3.55V8.966h3.55c1.056,0,1.936,0.738,1.936,1.883
	C806.899,11.995,806.063,12.77,804.963,12.77"/>
<path fill="#0078C1" d="M802.427,170.549c-4.471,0-8.744-0.85-12.698-2.503c-3.968-1.651-7.468-3.983-10.399-6.923
	c-2.922-2.893-5.271-6.394-6.93-10.361c-1.668-3.955-2.509-8.223-2.509-12.646V0h-29.637v138.09c0,8.442,1.646,16.52,4.854,24.041
	c3.217,7.493,7.739,14.162,13.422,19.855c5.698,5.661,12.383,10.158,19.865,13.359c7.517,3.213,15.609,4.836,24.031,4.836h15.521
	v-29.633H802.427z"/>
<path fill="#0078C1" d="M550.132,91.197c-3.21-7.59-7.708-14.318-13.365-20.008c-5.642-5.671-12.259-10.212-19.674-13.492
	c-7.439-3.282-15.557-4.943-24.132-4.943c-10.09,0-19.563,2.325-28.148,6.911c-7.122,3.782-13.337,8.809-18.519,14.97
	c-5.158-6.148-11.32-11.168-18.365-14.959c-8.508-4.593-18.019-6.922-28.27-6.922c-8.418,0-16.491,1.661-23.99,4.94
	c-7.504,3.28-14.127,7.832-19.679,13.517c-5.564,5.689-10.005,12.414-13.21,19.991c-3.209,7.595-4.837,15.898-4.837,24.674v84.076
	h30.523v-84.029c0-4.402,0.818-8.582,2.428-12.418c1.619-3.871,3.878-7.301,6.718-10.202c2.831-2.894,6.181-5.211,9.957-6.879
	c3.775-1.645,7.858-2.479,12.133-2.479c4.29,0,8.432,0.837,12.288,2.481c3.865,1.679,7.256,3.992,10.07,6.879
	c2.837,2.901,5.098,6.335,6.722,10.2c1.606,3.854,2.423,8.031,2.423,12.418v84.029h30.513v-84.029c0-4.379,0.815-8.555,2.425-12.414
	c1.609-3.847,3.872-7.279,6.719-10.204c2.834-2.9,6.191-5.217,9.959-6.881c3.78-1.645,7.864-2.479,12.142-2.479
	c4.285,0,8.42,0.837,12.272,2.485c3.853,1.662,7.248,3.975,10.083,6.873c2.837,2.909,5.096,6.34,6.717,10.209
	c1.609,3.818,2.424,7.994,2.424,12.41v84.029h30.521v-84.076C554.979,107.104,553.347,98.801,550.132,91.197"/>
<polygon fill="#0078C1" points="168.91,0 0,199.766 35.326,199.766 87.09,138.819 146.692,138.819 146.692,110.5 111.149,110.5 
	173.606,37.036 173.606,199.766 203.233,199.766 203.233,0 "/>
<path fill="#0078C1" d="M302.71,170.549c-4.451,0-8.715-0.846-12.667-2.503c-3.966-1.651-7.471-3.983-10.404-6.923
	c-2.931-2.893-5.264-6.394-6.938-10.361c-1.664-3.955-2.513-8.223-2.513-12.646V84.63h46.385V54.669h-46.385V0h-29.632v54.669
	h-15.548V84.63h15.548v53.46c0,8.442,1.638,16.52,4.857,24.041c3.208,7.5,7.731,14.162,13.429,19.855
	c5.691,5.661,12.368,10.158,19.86,13.359c7.517,3.213,15.596,4.836,24.008,4.836h14.631v-29.633H302.71z"/>
</svg>
